<svg width="264" height="78" viewBox="0 0 264 78" fill="none" xmlns="http://www.w3.org/2000/svg">
<rect width="264" height="78" fill="white"/>
<path d="M68.3754 40.9701C69.3084 48.3093 68.1266 55.3375 65.1101 60.8108C71.2054 54.0314 74.1908 44.8574 73.1024 35.6834C71.8584 37.456 70.2413 39.2286 68.3754 40.9701Z" fill="#0075BF"/>
<path d="M47.2911 52.3521C54.9723 48.9002 61.6584 44.5775 66.4787 40.2238C65.95 36.7408 64.8927 33.1645 63.3378 29.6815C61.7828 26.1985 59.7926 23.0264 57.5535 20.3209C51.085 21.0362 43.4038 23.1508 35.7225 26.6027C33.4524 27.629 31.2755 28.7174 29.1919 29.8681C30.4669 33.8175 32.1462 38.1713 34.1987 42.7738C36.2512 47.3764 38.397 51.5124 40.5116 55.0887C42.7507 54.2802 45.0209 53.3783 47.2911 52.3521Z" fill="#FF0018"/>
<path d="M59.668 20.1032C61.7205 22.7155 63.4931 25.6698 64.9547 28.9351C66.4163 32.2004 67.4425 35.4968 68.0334 38.7622C69.9926 36.8341 71.5475 34.9371 72.6981 33.1023C72.2317 30.8321 71.5164 28.6241 70.5524 26.4162C69.5572 24.2393 68.3755 22.2179 67.0072 20.3831C64.8614 20.041 62.3735 19.9477 59.668 20.1032Z" fill="white"/>
<path d="M24.7447 60.562C22.1946 60.8108 19.8001 60.8108 17.6543 60.5931C23.7807 67.4969 32.6125 71.3531 41.7554 71.2909C35.6602 69.9226 29.6271 66.1597 24.7447 60.562Z" fill="#FFC200"/>
<path d="M44.2432 63.8584C42.7816 61.9925 41.2578 59.7845 39.7029 57.2345C35.1936 58.7583 30.8399 59.7845 26.8904 60.3132C33.732 67.6524 42.6572 71.3531 50.6494 69.7671C48.7213 68.7719 46.5756 66.7816 44.2432 63.8584Z" fill="white"/>
<path d="M27.6057 30.7699C23.3142 33.2577 19.5513 35.9944 16.5037 38.731C17.0323 42.214 18.0897 45.7903 19.6446 49.2733C21.1995 52.7563 23.1898 55.9283 25.4289 58.6339C29.5027 58.1674 34.0431 57.1723 38.7389 55.6485C36.6242 52.0411 34.5406 47.9361 32.5504 43.4891C30.5912 39.042 28.9119 34.7194 27.6057 30.7699Z" fill="#FFAC00"/>
<path d="M66.7585 42.4317C61.9072 46.5989 55.501 50.6417 48.0063 54.0003C45.7983 54.9954 43.5904 55.8662 41.4446 56.6436C46.7002 65.1334 51.6137 69.8293 54.5058 68.5543C54.5058 68.5543 54.5058 68.5543 54.5369 68.5543C54.6613 68.4921 54.8168 68.4299 54.9412 68.3677C63.5243 64.2316 67.847 53.8759 66.7585 42.4317Z" fill="#00AB9B"/>
<path d="M58.2377 18.3928C60.7877 18.144 63.1823 18.144 65.3281 18.3306C59.2017 11.4268 50.3698 7.57062 41.2581 7.63282C47.3533 9.03224 53.3553 12.7951 58.2377 18.3928Z" fill="#8A61FF"/>
<path d="M28.6321 28.1265C30.6534 27.0381 32.7681 25.9807 34.9761 24.9856C42.4708 21.627 49.7478 19.5123 56.0607 18.6416C48.2239 10.2139 37.6194 6.57545 28.8497 10.245C28.6943 10.3072 28.5699 10.3694 28.4455 10.4316C25.5533 11.7689 25.771 18.5483 28.6321 28.1265Z" fill="white"/>
<path d="M14.6068 37.9847C13.6739 30.6455 14.8556 23.6173 17.8721 18.144C11.7769 24.8923 8.79144 34.0974 9.87988 43.2403C11.1549 41.4988 12.7409 39.7262 14.6068 37.9847Z" fill="#00953E"/>
<path d="M23.3451 58.8516C21.2926 56.2394 19.52 53.285 18.0584 50.0197C16.5968 46.7544 15.5705 43.458 14.9797 40.1927C13.0205 42.1208 11.4656 44.0177 10.3149 45.8525C10.7814 48.1227 11.4967 50.3307 12.4607 52.5387C13.4559 54.7155 14.6376 56.7369 16.0059 58.5717C18.1206 58.9449 20.6085 59.0071 23.3451 58.8516Z" fill="white"/>
<path d="M16.2238 36.5231C19.2403 33.9108 22.9099 31.3608 27.046 28.9973C26.1752 26.1674 25.5222 23.5551 25.1179 21.2228C24.4648 17.5221 24.4337 14.5988 24.9624 12.4841C18.4318 17.3977 15.2908 26.5405 16.2238 36.5231Z" fill="#7BC819"/>
<path d="M75.6836 34.7194C75.6214 34.284 75.5592 33.8486 75.4659 33.3821L75.4348 33.2267C75.3415 32.7913 75.2793 32.3559 75.186 31.9516L75.1239 31.7339C75.0306 31.3919 74.9684 31.0498 74.8751 30.7077L74.844 30.5833C74.8129 30.49 74.8129 30.4278 74.7818 30.3345C74.6885 30.0235 74.5952 29.6815 74.5019 29.3705C74.4397 29.215 74.4086 29.0595 74.3464 28.8729C74.2842 28.6863 74.222 28.4686 74.1598 28.282C74.0665 28.0332 73.9732 27.7534 73.8799 27.5046C73.8177 27.318 73.7244 27.1003 73.6622 26.9137C73.6 26.7271 73.5067 26.5405 73.4135 26.3228C73.3513 26.1674 73.258 25.9808 73.1958 25.8253L73.1336 25.7009C73.0714 25.5765 73.0403 25.4832 72.9781 25.3588C72.9159 25.2344 72.8848 25.1411 72.8226 25.0167L72.7604 24.8923C72.6982 24.7368 72.6049 24.5502 72.5116 24.3948C72.4183 24.2082 72.325 24.0216 72.2317 23.835C72.1384 23.6484 72.0451 23.4618 71.9207 23.2752C71.7963 23.0264 71.6408 22.7776 71.5165 22.5289C71.4232 22.3423 71.2988 22.1557 71.2055 22.0002C71.1122 21.8447 71.0189 21.6892 70.9256 21.5337C70.739 21.2538 70.5835 20.9739 70.3969 20.663L70.1792 20.352C69.9926 20.0721 69.806 19.7611 69.5884 19.4812L69.4329 19.2946C69.1841 18.9526 68.9353 18.6105 68.6554 18.2684L68.5621 18.144C68.2511 17.7708 67.9713 17.4288 67.6914 17.0867C59.979 8.06818 47.9129 3.59004 36.1889 5.39373H36.0956C35.6291 5.45593 35.1626 5.54923 34.7272 5.64252C34.323 5.73581 33.9187 5.82911 33.4833 5.9224L33.2034 5.9846C32.8302 6.0779 32.4571 6.17119 32.0839 6.29558C31.9595 6.32668 31.8351 6.35778 31.7107 6.41998C31.3686 6.51327 31.0266 6.63766 30.6845 6.73096C30.5601 6.76206 30.4357 6.82425 30.3424 6.85535L30.2491 6.88645C30.0003 6.97974 29.7204 7.07304 29.4716 7.16633L29.3472 7.19743C29.2229 7.22853 29.1296 7.29072 29.0052 7.32182C28.6942 7.44622 28.3521 7.57061 28.0411 7.7261C27.8234 7.8194 27.5746 7.91269 27.357 8.03708C27.1393 8.13038 26.8905 8.25477 26.6728 8.34807C26.3618 8.50356 26.0508 8.65905 25.7399 8.81454C25.6466 8.87674 25.5222 8.90783 25.4289 8.97003L25.3045 9.03223C25.0557 9.15662 24.8069 9.31211 24.5581 9.4365L24.4959 9.4676C24.3715 9.5298 24.2782 9.59199 24.1538 9.65419C23.8429 9.84078 23.5319 10.0274 23.2209 10.214C23.0965 10.2762 23.0032 10.3384 22.8788 10.4316C22.5367 10.6493 22.2258 10.867 21.8837 11.0847L21.666 11.2402C20.9196 11.7689 20.2044 12.2975 19.5202 12.8573L19.458 12.8884C9.91085 20.8185 5.33941 33.351 7.54739 45.6037V45.6659C7.64068 46.1013 7.73398 46.5678 7.82727 47.0032L7.85837 47.1587C7.95166 47.5318 8.04496 47.9361 8.13825 48.3093L8.20045 48.527C8.29374 48.8691 8.38704 49.2111 8.51143 49.5532C8.54253 49.7087 8.60473 49.8642 8.66692 49.9886C8.72912 50.2063 8.82241 50.424 8.88461 50.6417C8.97791 50.8905 9.0401 51.1081 9.1334 51.3569C9.22669 51.5746 9.28889 51.7923 9.38218 52.01C9.44438 52.1966 9.53767 52.3832 9.59987 52.5698C9.66207 52.7252 9.75536 52.9118 9.81756 53.0673L9.87975 53.1917C9.91085 53.285 9.97305 53.4094 10.0041 53.5027C10.0663 53.596 10.0974 53.7204 10.1596 53.8137L10.2218 53.9381C10.284 54.0936 10.3773 54.2802 10.4706 54.4356C10.5639 54.6222 10.6572 54.8088 10.7505 54.9954C10.8438 55.2131 10.9682 55.3997 11.0615 55.6174C11.1859 55.8351 11.3103 56.0527 11.4347 56.2704C11.5591 56.4881 11.6524 56.6747 11.7767 56.8924C11.87 57.0168 11.9322 57.1723 12.0255 57.2967C12.2121 57.6077 12.3987 57.9187 12.6164 58.2296L12.7408 58.4162C12.9585 58.7583 13.1762 59.1004 13.425 59.4114L13.5182 59.5358C13.7981 59.9089 14.0469 60.2821 14.3579 60.6553L14.389 60.6864C20.9818 69.0829 31.0577 73.872 41.5689 73.872C43.3104 73.872 45.083 73.7477 46.8556 73.4678C47.7263 73.3434 48.6282 73.1568 49.53 72.9391L49.7477 72.8769C50.152 72.7836 50.5251 72.6903 50.9294 72.5659C51.0538 72.5348 51.1782 72.5037 51.2715 72.4726C51.6447 72.3793 51.9868 72.2549 52.3599 72.1305C52.4532 72.0994 52.5154 72.0683 52.6087 72.0372L52.7331 72.0061C53.013 71.9128 53.2929 71.8196 53.5728 71.6952L53.6972 71.6641C53.7905 71.633 53.9149 71.5708 54.0081 71.5397C54.3502 71.4153 54.6612 71.2598 55.0033 71.1354C55.221 71.0421 55.4387 70.9488 55.6875 70.8555C55.9051 70.7622 56.1228 70.6378 56.3405 70.5445C56.6515 70.389 56.9936 70.2336 57.3046 70.0781C57.3979 70.0159 57.5222 69.9848 57.6155 69.9226L57.7399 69.8604C57.9887 69.736 58.2686 69.5805 58.5174 69.425L58.6418 69.3628C58.7351 69.3317 58.7973 69.2695 58.8906 69.2384C59.2327 69.0518 59.5436 68.8652 59.8857 68.6475C59.979 68.5853 60.0723 68.5231 60.1967 68.4609C60.5388 68.2433 60.8809 68.0256 61.1918 67.8079L61.3784 67.6524C62.1248 67.1237 62.84 66.5951 63.5242 66.0353L63.5864 66.0042C72.636 58.5095 77.3007 46.5056 75.6836 34.7194ZM28.4454 10.4316L28.8186 11.2402C28.943 11.178 29.0985 11.1158 29.2229 11.0536C36.9352 7.81939 46.6068 10.5249 54.2569 17.9885C48.0684 19.0148 41.3512 21.1294 34.6339 24.146C32.7681 24.9856 30.9644 25.8564 29.1918 26.7893C26.2685 16.5269 27.1393 11.9866 28.8186 11.2091L28.4454 10.4316ZM27.1082 32.1071C28.3832 35.8389 29.9381 39.7884 31.7729 43.8622C33.6077 47.9361 35.5047 51.7301 37.4639 55.1509C33.4522 56.3948 29.4716 57.2967 25.8331 57.7321C23.7185 55.0887 21.9148 52.1344 20.4843 48.9313C19.0537 45.7281 18.0275 42.4317 17.4677 39.0731C20.2044 36.6475 23.5008 34.2529 27.1082 32.1071ZM30.2491 30.2723C32.1461 29.2461 34.1053 28.282 36.0645 27.3802C43.186 24.1771 50.6495 22.0002 57.1491 21.2227C59.2637 23.8661 61.0675 26.8204 62.498 30.0235C63.9285 33.2267 64.9547 36.5231 65.5145 39.8817C60.601 44.2354 54.0081 48.3715 46.9178 51.5435C44.9586 52.4454 42.9061 53.2539 40.8847 53.9692C38.8633 50.4862 36.873 46.5989 34.976 42.3695C33.1101 38.1713 31.5241 34.0974 30.2491 30.2723ZM24.2471 21.3782C24.6203 23.524 25.2112 25.9497 25.9886 28.593C22.6611 30.5211 19.6446 32.5736 17.0013 34.7505C16.597 26.5405 19.0537 19.2946 23.7496 14.7232C23.6252 16.5891 23.7807 18.8282 24.2471 21.3782ZM39.3298 58.2918C40.7914 60.6242 42.1908 62.6767 43.5591 64.3871C45.1763 66.4396 46.7312 68.0256 48.1928 69.1762C41.6622 69.6427 34.6028 66.6573 28.7564 60.9041C32.1461 60.3754 35.6913 59.5047 39.3298 58.2918ZM68.5621 36.9584C67.9091 34.1285 66.9761 31.2986 65.7633 28.593C64.5505 25.8564 63.0577 23.3063 61.3784 20.9428C63.2443 20.8807 64.9547 20.9739 66.4785 21.2227C67.7536 22.9642 68.842 24.8301 69.7128 26.8204C70.6146 28.8107 71.2677 30.8632 71.7341 32.9779C70.9256 34.2529 69.8372 35.5901 68.5621 36.9584ZM58.6107 17.4598C55.5009 13.9768 51.9557 11.178 48.1617 9.24992C53.7594 10.4938 58.9528 13.2616 63.1199 17.3044C61.6894 17.3044 60.1656 17.3355 58.6107 17.4598ZM13.6737 37.6426C12.5231 38.731 11.4969 39.8195 10.5639 40.9079C10.284 35.1236 11.6835 29.4016 14.4823 24.3637C13.425 28.4997 13.1451 33.009 13.6737 37.6426ZM14.4201 41.9964C15.0732 44.8263 16.0061 47.6562 17.2189 50.3618C18.4318 53.0673 19.9245 55.6485 21.6038 58.0119C19.7379 58.0741 18.0275 57.9808 16.5037 57.7321C15.2287 55.9906 14.1402 54.1247 13.2695 52.1344C12.3676 50.1752 11.7146 48.0916 11.2481 46.008C12.0877 44.733 13.1451 43.3647 14.4201 41.9964ZM24.4026 61.4949C27.5125 64.9779 31.0577 67.7457 34.8516 69.7049C29.254 68.4609 24.0605 65.6932 19.8934 61.6504C21.2928 61.6815 22.8166 61.6193 24.4026 61.4949ZM54.5368 67.5591C54.4124 67.6213 54.3191 67.6835 54.1947 67.7146H54.1636C52.4532 68.4609 48.5038 66.0664 42.7817 57.079C44.6476 56.3948 46.5135 55.6174 48.3794 54.7777C55.0655 51.7612 61.1296 48.1227 66.0121 44.2043C66.5096 54.871 62.1248 63.8895 54.5679 67.528L54.5368 67.5591ZM69.3085 41.3122C70.4591 40.2238 71.4854 39.1353 72.4183 38.0469C72.6982 43.8312 71.2988 49.5532 68.4999 54.5911C69.5573 50.4551 69.8372 45.9458 69.3085 41.3122Z" fill="#241F20"/>
<path d="M138.695 33.4816C138.386 33.5845 138.283 33.6874 138.283 33.8418C138.283 33.9447 138.335 34.0476 138.386 34.1505V34.3563C137.872 36.1058 136.997 37.5981 135.968 38.7301H135.556C135.505 38.833 135.453 38.9874 135.248 39.1418V39.7592L132.778 41.3029L133.086 41.3544C133.189 41.3544 133.189 41.3029 133.189 41.2515C132.829 42.1777 132.366 42.6408 131.8 42.6408C131.851 42.6922 131.903 42.5379 131.903 42.3321L131.749 42.1777L128.918 44.1845L129.124 44.4418C129.021 44.4932 128.764 44.5447 128.301 44.5961L126.243 45.6253C126.037 45.7796 125.728 46.0884 125.368 46.3971C125.368 46.3456 125.316 46.2942 125.265 46.1913H125.008C124.956 46.2427 124.905 46.3456 124.905 46.6029C124.184 46.8602 123.155 47.2719 121.869 47.9408C121.097 48.1981 119.862 48.6612 118.267 49.2786C118.164 49.3816 117.907 49.5359 117.65 49.7418C117.341 49.7418 116.878 49.7932 116.26 49.8961C115.951 50.0505 115.797 50.1534 115.746 50.1534C115.694 50.1534 115.643 50.1019 115.54 50.1019C115.488 50.0505 115.437 50.0505 115.437 49.999C114.511 50.5651 113.996 50.8738 113.79 50.8738C113.687 50.8738 113.636 50.8223 113.43 50.7709L109.519 52.2117C109.519 52.1087 109.468 52.0058 109.365 51.9029H108.696C108.799 52.0058 108.85 52.1087 108.85 52.2631C108.85 52.6748 108.748 53.3437 108.696 54.2699L109.108 58.1806V60.1874C109.005 60.2388 108.799 60.2903 108.593 60.4961C108.696 60.599 108.799 60.8049 108.799 61.1651C108.284 61.1651 107.821 61.3194 107.41 61.6796C106.895 61.7825 106.226 61.9883 105.403 62.4C104.374 61.8854 103.55 60.8049 102.984 59.3641C102.418 57.8718 102.161 56.2252 102.264 54.4243L102.573 49.2272C102.573 49.1757 102.676 48.9699 102.779 48.6612C102.882 48.3524 102.933 48.0952 102.933 47.9408C103.036 47.4262 103.087 46.7573 103.242 45.7796C103.345 45.4709 103.396 45.0078 103.448 44.3388C103.756 43.6699 103.911 42.9495 103.859 42.1262L106.638 33.0699C106.329 33.1728 105.866 33.4816 105.249 33.9961C105.3 34.1505 105.351 34.7165 105.557 35.5913C105.557 35.6427 105.403 35.6942 105.094 35.9C104.837 36.0029 104.683 36.1058 104.58 36.1058C104.477 36.2088 104.425 36.3631 104.425 36.6719C103.911 36.9291 103.653 37.0321 103.55 36.9806L103.345 37.2893L102.727 37.1864C102.779 37.2379 102.779 37.3922 102.779 37.701C102.624 37.5981 102.418 37.3922 102.11 37.1864L101.904 37.3922C100.823 36.6204 100.206 35.5398 100 34.099C100.051 33.7389 100.051 33.3787 100.051 33.1728C100.051 32.9156 100.051 32.8126 100 32.7612C100.051 32.0408 100.617 31.2689 101.595 30.4456C101.904 30.1884 102.573 29.6738 103.756 28.8505C104.065 28.7476 104.785 28.4389 105.917 27.8728C106.02 27.7699 106.02 27.7699 106.02 27.667L105.969 27.6156C106.278 27.5126 106.535 27.4097 106.792 27.4097C106.895 27.4097 106.947 27.4097 107.05 27.4612L109.931 26.2262C110.034 26.2777 110.085 26.3291 110.188 26.3291C110.291 26.3291 110.909 26.0204 112.195 25.4029C112.092 25.4544 112.092 25.5058 112.092 25.6088H112.71C112.813 25.6088 112.813 25.5058 112.813 25.4029C113.327 25.4029 113.636 25.3515 113.636 25.3L114.974 24.9913C115.18 24.9913 115.283 24.9913 115.334 25.0942L115.643 24.7855L116.157 24.8884C116.517 24.734 116.929 24.4767 117.392 24.168H117.855L118.061 24.3738C118.37 24.2194 118.627 24.0651 118.987 24.0651L122.281 23.4476C122.744 23.4476 123.052 23.4476 123.361 23.499L123.567 23.2932H124.442C124.442 23.3961 124.545 23.5505 124.648 23.7049C124.596 23.7049 124.75 23.602 125.008 23.3961C125.316 23.2418 125.677 23.1389 126.14 23.1389H128.301C131.08 23.1389 133.755 23.8592 136.431 25.3515C137.872 26.7408 138.644 28.5932 138.644 30.9088C138.644 31.166 138.592 31.4233 138.592 31.6291L138.798 31.835V33.4816H138.695ZM130.668 29.3136C130.359 29.2107 129.896 29.2107 129.124 29.1592C128.661 29.1078 128.404 29.0049 128.301 28.799L125.677 28.5932C124.545 28.4903 123.67 28.5932 123.052 28.902L122.847 28.6961C122.641 28.799 122.332 28.799 121.92 28.799C121.92 28.8505 121.869 28.902 121.817 29.0049C121.457 28.902 121.2 28.799 121.097 28.799C120.48 28.799 118.576 29.1078 115.283 29.7253C115.025 29.7767 114.099 30.034 112.452 30.5486C111.783 30.7544 111.423 31.0631 111.269 31.6291C111.475 31.7321 111.578 31.8864 111.578 32.1437V32.6583L111.886 32.967V33.6874L110.857 38.7816C110.754 39.0903 110.703 39.2961 110.703 39.502C110.703 39.6049 110.703 39.6049 110.754 39.7078C110.549 39.9136 110.446 40.068 110.446 40.2223L109.519 46.4486H109.828C109.828 46.4486 109.777 46.4486 109.777 46.3971C109.777 46.2427 110.909 45.5223 113.173 44.3388C114.717 43.5155 117.289 42.435 120.943 41.0456L123.104 39.9651C125.368 39.2447 127.838 37.5466 130.616 34.9223C130.977 34.4078 131.337 33.8932 131.646 33.3787C132.109 32.6583 132.366 32.0408 132.366 31.5262C132.469 30.4971 131.851 29.7253 130.668 29.3136ZM113.482 25.1456L113.79 24.9398L113.482 25.1456ZM126.449 28.799C126.449 28.799 126.603 28.799 126.809 28.8505C127.066 28.8505 127.272 28.902 127.323 28.902C126.963 28.902 126.706 28.8505 126.449 28.799ZM127.838 45.1107C127.941 44.8534 128.044 44.802 128.044 44.8534C127.992 44.9049 127.992 45.0078 127.838 45.1107ZM132.057 41.8689C132.16 41.9204 132.212 41.8689 132.263 41.8175C132.366 41.766 132.366 41.7146 132.315 41.7146C132.263 41.7146 132.212 41.766 132.057 41.8689Z" fill="#241F20"/>
<path d="M150.016 29.8796L146.362 61.8854C145.899 61.8854 145.436 61.9884 144.921 62.1942C144.767 62.1942 144.613 62.0913 144.458 61.9884L144.201 62.0398C144.047 62.0913 143.892 62.0913 143.686 62.0913C143.635 62.0398 143.275 61.7825 142.657 61.268C142.554 61.268 142.349 61.3709 142.143 61.5767C142.04 61.3194 141.937 61.0107 141.731 60.6505C141.474 58.8495 141.371 57.7175 141.371 57.3058L143.069 42.6923C143.635 37.9068 144.201 32.8641 144.716 27.4612C144.818 26.9466 145.024 26.1748 145.333 25.1457C145.59 24.168 145.95 23.4991 146.362 23.0874L147.237 23.1903C147.597 23.5505 147.957 23.8078 148.317 23.9107C148.42 24.0651 148.729 24.5282 149.295 25.2486C149.758 26.535 149.964 27.3068 149.964 27.667V29.8796H150.016Z" fill="#241F20"/>
<path d="M174.92 58.6437L174.2 58.5408C174.097 58.6437 174.046 58.8495 173.891 59.0553C173.686 58.9524 173.428 58.7981 173.068 58.5408C172.708 58.6437 171.936 58.1806 170.753 57.2029C170.495 56.6884 169.878 55.7621 168.952 54.4243L163.6 58.4379C163.6 58.4893 163.652 58.5408 163.703 58.5922C163.806 58.6951 163.806 58.6952 163.806 58.7466C163.703 58.9524 163.446 59.1583 163.034 59.3641C162.725 59.5184 162.417 59.6728 162.056 59.8786C159.02 60.8049 157.528 61.268 157.631 61.268C155.573 61.268 153.926 60.4447 152.64 58.8495C152.074 57.2544 151.765 56.1223 151.765 55.402C151.765 54.9388 152.28 53.4466 153.36 51.0282C154.338 49.999 154.955 49.4845 155.419 49.433C155.521 49.3301 156.551 48.5583 158.403 47.3233C159.278 46.9631 160.616 46.3971 162.571 45.5223C164.629 45.0078 165.607 44.802 165.401 44.802C165.504 44.802 165.864 44.8534 166.43 44.9049C167.099 44.9563 167.511 45.0078 167.717 44.9563C168.54 45.3165 168.9 45.6767 168.9 46.1398C168.9 46.1913 168.9 46.2427 168.9 46.2942C169.157 46.5 169.363 46.8088 169.518 47.1689C169.723 47.6321 169.826 47.8893 169.878 47.9922C169.981 47.9408 170.135 47.9408 170.238 47.9408C170.855 47.9408 171.421 48.1981 171.987 48.6612C172.862 49.999 173.634 51.2855 174.354 52.5719C175.281 54.167 175.95 55.6078 176.361 56.7398C176.001 57.3058 175.538 57.8718 174.92 58.6437ZM165.401 50.668C164.989 50.668 164.166 50.9767 162.88 51.4398C162.159 51.7486 161.387 52.0058 160.616 52.366C159.792 52.8806 158.866 53.5495 157.888 54.5272L157.786 54.7845L158.969 54.8874C161.748 54.167 163.909 53.035 165.555 51.3884C165.658 51.2854 165.967 51.0796 166.482 50.668H165.401Z" fill="#241F20"/>
<path d="M200.957 52.8806L200.34 59.5185L199.517 61.8854C199.362 61.9369 199.105 62.0913 198.796 62.3486H198.487C198.385 62.3486 198.23 62.2456 198.024 62.0398H197.767C197.767 62.0398 197.664 62.0913 197.407 62.1427C197.098 61.8854 196.635 61.4738 195.966 60.9592C195.812 60.4961 195.606 59.8272 195.297 58.9524L195.246 56.7913L195.606 50.9767V49.433C195.554 49.3301 195.452 49.2272 195.297 49.0728C194.011 49.6388 193.085 50.102 192.57 50.4621L188.453 54.8359C186.704 56.6884 185.418 58.4379 184.594 59.9816C184.234 60.1874 183.771 60.2903 183.308 60.2903C183.205 60.2903 182.948 60.1874 182.536 60.033L182.33 60.3417C182.279 60.3417 182.021 60.2903 181.61 60.2388V59.7243L181.044 59.3641C180.941 59.4155 180.735 59.467 180.426 59.6728C180.323 59.3641 180.118 58.9524 179.963 58.2835C179.963 57.8718 179.912 57.5116 179.86 57.2544C179.86 56.9971 179.809 56.7913 179.809 56.7398C179.809 56.6883 179.809 56.6369 179.809 56.6884L180.118 54.0641C180.169 53.7039 180.22 53.035 180.426 52.0573C180.529 51.234 180.735 50.2563 180.941 49.0728C181.044 48.1466 181.455 46.7573 182.124 44.9563L183.205 44.4418C183.411 44.4932 183.72 44.5447 184.08 44.6476C184.08 44.9563 184.183 45.1621 184.44 45.368C184.749 45.6767 184.954 45.8825 185.057 45.9854C185.16 46.5 185.366 46.9117 185.572 47.2204C185.675 47.5806 185.778 48.1981 185.984 49.0214C188.299 47.6835 189.894 46.3971 190.718 45.2651C190.975 45.1621 191.335 44.9049 191.901 44.4418C193.033 43.7728 194.165 43.1553 195.349 42.5379C196.018 42.332 196.532 42.2291 196.944 42.2291C197.15 42.2291 197.767 42.5379 198.796 43.2583C199.671 44.5961 200.391 46.7058 201.009 49.4845L200.957 52.8806Z" fill="#241F20"/>
<path d="M212.998 31.6806L212.278 43.6699L212.381 46.6029C212.278 46.8088 212.175 47.066 212.175 47.2719V48.9699L211.866 51.7486V53.3952L211.763 59.3126C211.763 59.4155 211.866 59.5699 212.072 59.7757C211.969 59.7757 211.814 59.8786 211.609 60.0845H211.3C211.3 60.0845 211.197 60.033 210.991 59.9816C210.477 60.3418 210.219 60.702 210.271 61.0107C209.756 61.2165 209.19 61.3194 208.727 61.3194C208.418 61.3194 208.213 61.2165 208.007 61.1136C207.492 60.8049 206.823 60.2388 206 59.6214L205.485 56.1738L206.926 31.9379C207.029 31.4233 207.08 30.7544 207.235 29.9311C207.286 29.6738 207.338 29.3651 207.389 28.9534C207.441 28.902 207.698 28.233 208.315 26.8437C208.727 25.9175 209.242 25.3 209.808 25.1971C210.014 25.2486 210.271 25.3515 210.528 25.5059C211.403 26.4321 211.814 26.8952 211.866 26.9466C212.329 27.4612 212.638 28.0787 212.844 28.6961L212.998 31.6806Z" fill="#241F20"/>
<path d="M258.846 29.6224C258.794 30.3427 258.743 29.5709 258.743 29.7253C258.846 29.9311 258.949 30.1369 258.949 30.3942C258.897 30.3942 258.846 30.4457 258.691 30.4971C258.588 30.5486 258.537 30.5486 258.485 30.5486C258.383 30.9602 258.074 31.4748 257.559 32.1437C257.662 32.401 257.714 32.5039 257.714 32.4524C257.611 32.5554 257.405 32.7097 257.096 32.8641L254.266 32.6068C248.451 32.967 251.127 31.835 245.313 32.5554C245.107 32.7612 245.004 32.8641 245.004 32.967C244.798 32.8641 244.695 32.7612 244.644 32.6583C244.438 32.7097 244.284 32.7612 244.129 32.7612C243.975 32.7612 243.82 32.7097 243.717 32.6583C243.512 32.7612 243.409 32.9156 243.409 33.0699H242.174C242.122 33.1728 242.071 33.1728 242.071 33.2757L239.189 33.8932C238.675 35.1796 238.006 39.0903 237.234 43.2068C237.337 43.5155 237.337 43.8757 237.285 44.2359C236.205 50.668 235.639 55.4534 235.536 58.6437C235.433 58.7466 235.279 58.7981 235.021 58.7981C234.918 59.1583 234.867 59.467 234.867 59.7243C234.352 60.033 233.992 60.2903 233.786 60.5476C234.198 60.5476 233.581 60.4447 231.883 60.1359C231.677 59.6214 231.574 59.4155 231.522 59.3641C231.471 59.3641 231.368 59.3126 231.162 59.3126C230.905 58.9524 230.596 58.335 230.184 57.6146L230.287 52.2117C230.751 49.5874 231.368 44.5447 232.191 39.4505C232.5 38.1641 232.86 36.8262 233.169 35.3855V34.6136C233.117 34.5107 233.015 34.4078 232.86 34.2534C232.14 34.4592 231.78 34.5622 231.883 34.5622C231.78 34.5622 231.728 34.5107 231.677 34.4592C231.574 34.4078 231.522 34.3563 231.471 34.3563C231.368 34.3563 231.111 34.4592 230.545 34.6136C230.03 34.8194 229.721 34.9223 229.67 34.9223C229.618 34.9223 229.464 34.8709 229.31 34.8194C229.104 34.768 229.001 34.768 228.95 34.768L226.274 35.2825C226.274 35.2825 226.171 35.2311 226.017 35.1796C225.914 35.1796 225.811 35.1282 225.759 35.1282L222.157 35.9515L218.555 36.3117L216.549 36.2602C216.034 35.9 215.571 35.6427 215.056 35.4369C214.953 35.334 214.953 35.1796 214.953 34.9738C214.851 34.8709 214.696 34.768 214.542 34.6651C214.542 34.3563 214.439 34.0476 214.13 33.6359V33.0699L215.005 31.2175C215.314 31.0631 215.777 30.8058 216.394 30.4456C218.452 30.0855 222.106 29.3136 227.457 28.7476L250.767 26.1233H257.508C257.508 26.3291 257.714 26.6379 258.074 27.101C258.485 27.6156 258.691 27.8728 258.691 27.9757C258.691 28.0787 258.64 28.0787 258.64 28.1301C258.743 28.1816 258.846 28.233 259 28.3359C258.949 28.5932 258.846 29.0049 258.846 29.6224Z" fill="#241F20"/>
</svg>
